<?xml version="1.0" standalone="no"?>
<!DOCTYPE svg PUBLIC "-//W3C//DTD SVG 20010904//EN"
 "http://www.w3.org/TR/2001/REC-SVG-20010904/DTD/svg10.dtd">
<svg version="1.0" xmlns="http://www.w3.org/2000/svg"
 width="512.000000pt" height="512.000000pt" viewBox="0 0 512.000000 512.000000"
 preserveAspectRatio="xMidYMid meet">
<metadata>
Created by potrace 1.11, written by Peter Selinger 2001-2013
</metadata>
<g transform="translate(0.000000,512.000000) scale(0.100000,-0.100000)"
fill="#000000" stroke="none">
<path d="M651 5059 c-312 -61 -558 -300 -619 -599 -4 -19 -7 -885 -7 -1925 0
-1810 1 -1893 18 -1950 88 -284 300 -482 588 -550 56 -13 310 -15 1929 -15
1281 0 1879 4 1910 11 25 6 56 13 70 15 13 3 57 19 96 35 244 102 428 339 462
594 9 70 8 3700 -1 3761 -4 23 -11 53 -16 67 -5 14 -8 27 -5 29 8 9 -91 194
-130 243 -94 118 -247 222 -395 267 l-76 23 -1890 1 c-1050 1 -1910 -2 -1934
-7z"/>
</g>
</svg>
